<svg width="141" height="27" viewBox="0 0 141 27" fill="none" xmlns="http://www.w3.org/2000/svg">
<path d="M13.4 21.1066H0.6V1.1066H7V15.9866H13.4V21.1066ZM16.5065 19.5066C15.1838 18.0986 14.5225 15.9653 14.5225 13.1066C14.5225 10.2479 15.1838 8.12526 16.5065 6.7386C17.8505 5.3306 20.0158 4.6266 23.0025 4.6266C25.9892 4.6266 28.1438 5.3306 29.4665 6.7386C30.8105 8.12526 31.4825 10.2479 31.4825 13.1066C31.4825 15.9653 30.8105 18.0986 29.4665 19.5066C28.1438 20.8933 25.9892 21.5866 23.0025 21.5866C20.0158 21.5866 17.8505 20.8933 16.5065 19.5066ZM21.4025 10.6426V16.9146H22.3945C23.1625 16.9146 23.7172 16.8399 24.0585 16.6906C24.4212 16.5199 24.6025 16.1466 24.6025 15.5706V9.2986H23.6105C22.8425 9.2986 22.2772 9.38393 21.9145 9.5546C21.5732 9.70393 21.4025 10.0666 21.4025 10.6426ZM33.1735 25.4266L34.0055 20.6586C35.8188 21.2773 37.9415 21.5866 40.3735 21.5866C41.0988 21.5866 41.6108 21.5653 41.9095 21.5226V20.4026C40.0108 20.4026 38.7628 20.3279 38.1655 20.1786C37.5895 20.0079 37.2055 19.8479 37.0135 19.6986C36.8428 19.5279 36.7362 19.3893 36.6935 19.2826C36.6722 19.1759 36.6615 19.0266 36.6615 18.8346L37.6215 16.0826C36.0855 15.8053 34.9122 15.2293 34.1015 14.3546C33.3122 13.4799 32.9175 12.1146 32.9175 10.2586C32.9175 8.38126 33.5468 6.97326 34.8055 6.0346C36.0642 5.09593 38.1122 4.6266 40.9495 4.6266C41.9735 4.6266 42.8802 4.6906 43.6695 4.8186L46.4535 2.6746L49.8135 5.9066L47.9895 8.0506C48.2668 8.79726 48.4055 9.75726 48.4055 10.9306C48.4055 12.6159 47.9788 13.8746 47.1255 14.7066C46.2935 15.5173 44.8002 16.0079 42.6455 16.1786L42.5175 16.9466C44.8215 17.0746 46.4428 17.4266 47.3815 18.0026C48.3415 18.5573 48.8215 19.5919 48.8215 21.1066C48.8215 23.6879 47.5735 25.2879 45.0775 25.9066C43.8402 26.2266 42.1655 26.3866 40.0535 26.3866C37.9628 26.3866 35.6695 26.0666 33.1735 25.4266ZM38.9335 10.2266V12.3066H39.9255C40.6935 12.3066 41.2482 12.2319 41.5895 12.0826C41.9522 11.9119 42.1335 11.5386 42.1335 10.9626V8.8826H41.1415C40.3735 8.8826 39.8082 8.96793 39.4455 9.1386C39.1042 9.28793 38.9335 9.6506 38.9335 10.2266ZM52.5378 19.5066C51.2151 18.0986 50.5538 15.9653 50.5538 13.1066C50.5538 10.2479 51.2151 8.12526 52.5378 6.7386C53.8818 5.3306 56.0471 4.6266 59.0338 4.6266C62.0204 4.6266 64.1751 5.3306 65.4978 6.7386C66.8418 8.12526 67.5138 10.2479 67.5138 13.1066C67.5138 15.9653 66.8418 18.0986 65.4978 19.5066C64.1751 20.8933 62.0204 21.5866 59.0338 21.5866C56.0471 21.5866 53.8818 20.8933 52.5378 19.5066ZM57.4338 10.6426V16.9146H58.4258C59.1938 16.9146 59.7484 16.8399 60.0898 16.6906C60.4524 16.5199 60.6338 16.1466 60.6338 15.5706V9.2986H59.6418C58.8738 9.2986 58.3084 9.38393 57.9458 9.5546C57.6044 9.70393 57.4338 10.0666 57.4338 10.6426ZM69.2688 14.7066V11.2506C69.2688 10.6746 69.4394 10.3119 69.7808 10.1626C70.1434 9.99193 70.7088 9.9066 71.4768 9.9066H78.8688V13.3626C78.8688 13.9386 78.6874 14.3119 78.3248 14.4826C77.9834 14.6319 77.4288 14.7066 76.6608 14.7066H69.2688ZM95.4963 6.2266H90.8563V21.1066H84.4563V6.2266H79.8163V1.1066H95.4963V6.2266ZM102.215 15.6666V16.7866C102.855 16.8506 103.495 16.8826 104.135 16.8826C106.119 16.8826 108.124 16.5626 110.151 15.9226L110.919 20.6266C108.53 21.2666 106.162 21.5866 103.815 21.5866C100.828 21.5866 98.663 20.8933 97.319 19.5066C95.9963 18.0986 95.335 15.9653 95.335 13.1066C95.335 10.2479 95.9963 8.12526 97.319 6.7386C98.663 5.3306 100.818 4.6266 103.783 4.6266C106.77 4.6266 108.828 5.03193 109.959 5.8426C111.09 6.65326 111.655 8.16793 111.655 10.3866C111.655 12.2639 110.972 13.6186 109.607 14.4506C108.263 15.2613 105.799 15.6666 102.215 15.6666ZM102.215 10.6426V11.9546H103.527C104.295 11.9546 104.85 11.8799 105.191 11.7306C105.554 11.5599 105.735 11.1866 105.735 10.6106V9.2986H104.423C103.655 9.2986 103.09 9.38393 102.727 9.5546C102.386 9.70393 102.215 10.0666 102.215 10.6426ZM119.285 5.1066L121.077 9.0746H121.269L122.933 5.1066H129.589L125.589 13.2986L129.749 21.1066H123.093L121.109 16.7866H120.949L119.125 21.1066H112.469L116.629 12.8506L112.629 5.1066H119.285ZM130.39 9.2346V5.1066H131.99V2.5466L138.39 0.946596V5.1066H140.598V9.2346H138.39V16.5306C138.945 16.6373 139.574 16.7119 140.278 16.7546L139.99 21.4586C137.067 21.4586 135.169 21.2986 134.294 20.9786C133.206 20.5946 132.523 20.0826 132.246 19.4426C132.075 19.0586 131.99 18.6106 131.99 18.0986V9.2346H130.39Z" fill="#898989"/>
</svg>
